<?xml version="1.0" standalone="no"?>
<!DOCTYPE svg PUBLIC "-//W3C//DTD SVG 20010904//EN"
 "http://www.w3.org/TR/2001/REC-SVG-20010904/DTD/svg10.dtd">
<svg version="1.0" xmlns="http://www.w3.org/2000/svg"
 width="225.000000pt" height="225.000000pt" viewBox="0 0 225.000000 225.000000"
 preserveAspectRatio="xMidYMid meet">

<g transform="translate(0.000000,225.000000) scale(0.100000,-0.100000)"
fill="#000000" stroke="none">
<path d="M985 2240 c-165 -22 -340 -86 -477 -176 -94 -61 -261 -228 -322 -322
-207 -315 -241 -725 -87 -1073 l39 -88 -71 -245 c-64 -225 -69 -248 -57 -277
8 -18 27 -37 47 -47 34 -16 36 -16 268 61 l234 78 74 -36 c170 -81 297 -109
497 -108 257 0 457 66 660 214 74 54 199 180 251 254 227 320 270 744 110
1106 -116 263 -342 480 -614 589 -157 63 -384 91 -552 70z m301 -191 c386 -68
695 -377 763 -763 14 -77 14 -245 0 -322 -51 -288 -241 -545 -499 -674 -144
-72 -264 -100 -425 -100 -170 0 -282 28 -448 112 l-97 50 -171 -57 c-93 -31
-172 -55 -173 -54 -2 2 18 81 45 174 27 94 49 178 49 188 0 9 -17 52 -39 95
-73 147 -101 265 -101 427 0 161 28 281 100 425 126 252 370 437 650 495 80
16 266 19 346 4z"/>
<path d="M775 1368 c-22 -26 -26 -39 -21 -67 3 -21 16 -45 31 -58 26 -23 29
-23 340 -23 311 0 314 0 340 23 15 13 28 37 31 58 5 28 1 41 -21 67 l-27 32
-323 0 -323 0 -27 -32z"/>
<path d="M785 1008 c-15 -14 -28 -38 -31 -59 -5 -28 -1 -41 21 -67 l27 -32
229 0 230 0 24 26 c35 38 34 87 -4 125 l-29 29 -221 0 c-214 0 -221 -1 -246
-22z"/>
</g>
</svg>
